<?xml version="1.0" encoding="utf-8"?>
<!-- Generator: Adobe Illustrator 27.2.0, SVG Export Plug-In . SVG Version: 6.00 Build 0)  -->
<svg version="1.1" id="Layer_1" xmlns="http://www.w3.org/2000/svg" xmlns:xlink="http://www.w3.org/1999/xlink" x="0px" y="0px"
	 viewBox="0 0 512 512" style="enable-background:new 0 0 512 512;" xml:space="preserve">
<style type="text/css">
	
		.st0{clip-path:url(#SVGID_00000008108145142665063210000012294962941180783018_);fill:url(#SVGID_00000168082437095744320480000000454839586065738154_);}
	.st1{fill:#173159;}
</style>
<g>
	<g>
		<defs>
			<path id="SVGID_1_" d="M4.35,284.06l22.08-12.79l22.17,12.76l0.03,25.51L4.35,284.06z M29.28,269.63l20.7-11.96l20.73,11.96
				l-20.67,11.94L29.28,269.63z M51.45,284.04l45.68-26.39v25.52l-45.64,26.37L51.45,284.04z M27.85,243.24l20.7-11.99v23.94
				l-20.7,11.96V243.24z M51.41,255.19v-23.94l20.73,11.97v23.94L51.41,255.19z M2.86,230.51L25,243.25v25.56L2.92,281.59
				L2.86,230.51z M4.28,228.04l44.27-25.59v25.51l-22.13,12.82L4.28,228.04z M51.41,227.96v-25.51l44.24,25.54l-22.08,12.76
				L51.41,227.96z M49.37,198.68L0.71,226.81l-0.11,0.06L0,227.92l0.07,56.15v0.12l0.61,1.05l48.67,28.01l0.11,0.06l1.21,0
				l48.6-28.08l0.11-0.06l0.61-1.05v-29.21l-1.91-1.1l-23.08,13.33v-23.93l24.45-14.13v-2.21l-48.75-28.14l-0.11-0.06H49.37z"/>
		</defs>
		<clipPath id="SVGID_00000044862910592364817980000007546973361835094420_">
			<use xlink:href="#SVGID_1_"  style="overflow:visible;"/>
		</clipPath>
		
			<linearGradient id="SVGID_00000013185516507383304500000004666823840861642678_" gradientUnits="userSpaceOnUse" x1="5.4172" y1="2.5645" x2="7.0354" y2="2.5645" gradientTransform="matrix(0 65.7027 65.7027 0 -118.5009 -153.9631)">
			<stop  offset="0" style="stop-color:#4AC7F4"/>
			<stop  offset="0.05" style="stop-color:#4AC7F4"/>
			<stop  offset="0.8" style="stop-color:#2B3383"/>
			<stop  offset="1" style="stop-color:#2B3383"/>
		</linearGradient>
		
			<rect y="198.68" style="clip-path:url(#SVGID_00000044862910592364817980000007546973361835094420_);fill:url(#SVGID_00000013185516507383304500000004666823840861642678_);" width="99.98" height="114.63"/>
	</g>
	<polygon class="st1" points="144.11,279.6 139.13,279.6 139.13,296.34 135.05,296.34 135.05,279.6 130.15,279.6 130.15,276.21 
		144.11,276.21 	"/>
	<path class="st1" d="M150.77,282.7c0.73-1,1.89-1.59,3.13-1.59c1.21-0.07,2.38,0.47,3.11,1.44c0.8,1.28,1.17,2.78,1.08,4.29v9.51
		h-3.93v-9.47c0.05-0.66-0.09-1.32-0.41-1.9c-0.31-0.41-0.81-0.63-1.32-0.59c-0.69-0.01-1.33,0.37-1.66,0.98v10.98h-3.91v-21.24
		h3.91V282.7z"/>
	<path class="st1" d="M167.08,296.62c-1.75,0.1-3.46-0.55-4.7-1.8c-1.21-1.43-1.81-3.28-1.69-5.14v-1.19
		c-0.12-1.94,0.42-3.87,1.55-5.46c1.09-1.31,2.74-2.02,4.44-1.92c1.62-0.11,3.2,0.56,4.25,1.8c1.06,1.57,1.57,3.45,1.45,5.34v1.92
		h-7.78c-0.02,0.87,0.23,1.72,0.73,2.44c0.52,0.55,1.25,0.83,2,0.77c1.23,0.03,2.42-0.46,3.28-1.34l1.54,2.36
		c-0.54,0.71-1.26,1.27-2.09,1.61C169.12,296.42,168.1,296.63,167.08,296.62z M164.62,287.44h3.91v-0.36
		c0.03-0.7-0.13-1.4-0.44-2.03c-0.31-0.48-0.87-0.75-1.44-0.69c-0.59-0.05-1.16,0.24-1.49,0.73
		C164.79,285.82,164.61,286.63,164.62,287.44z"/>
	<rect x="182.9" y="276.21" class="st1" width="4.07" height="20.13"/>
	<path class="st1" d="M189.95,288.41c-0.13-1.91,0.3-3.82,1.24-5.49c0.81-1.2,2.18-1.88,3.62-1.81c1.15,0,2.22,0.55,2.88,1.49v-7.5
		h3.94v21.24h-3.55l-0.18-1.52c-0.64,1.11-1.82,1.79-3.1,1.8c-1.43,0.07-2.79-0.61-3.59-1.8c-0.93-1.6-1.37-3.44-1.26-5.28V288.41z
		 M193.87,289.39c-0.07,1.05,0.09,2.11,0.47,3.09c0.31,0.58,0.93,0.93,1.59,0.88c0.74,0.02,1.42-0.38,1.76-1.04v-6.83
		c-0.31-0.69-0.99-1.12-1.74-1.11c-0.65-0.04-1.26,0.3-1.58,0.87c-0.41,0.98-0.58,2.04-0.5,3.1V289.39z"/>
	<path class="st1" d="M210.69,296.62c-1.75,0.1-3.46-0.55-4.7-1.8c-1.21-1.43-1.81-3.28-1.69-5.14v-1.19
		c-0.12-1.94,0.42-3.87,1.55-5.46c1.09-1.31,2.74-2.02,4.44-1.92c1.62-0.11,3.2,0.56,4.25,1.8c1.06,1.57,1.57,3.45,1.45,5.34v1.92
		h-7.78c-0.02,0.87,0.23,1.72,0.73,2.44c0.52,0.55,1.25,0.83,2,0.77c1.23,0.03,2.42-0.46,3.28-1.34l1.54,2.36
		c-0.54,0.71-1.26,1.27-2.09,1.61C212.73,296.42,211.71,296.63,210.69,296.62z M208.23,287.44h3.91v-0.36
		c0.03-0.7-0.13-1.4-0.44-2.03c-0.31-0.48-0.87-0.75-1.44-0.69c-0.59-0.05-1.16,0.24-1.49,0.73
		C208.41,285.82,208.22,286.62,208.23,287.44L208.23,287.44z"/>
	<path class="st1" d="M222.49,281.38l0.11,1.48c0.79-1.12,2.09-1.78,3.47-1.76c2.57,0,3.89,1.8,3.97,5.41v9.83h-3.93v-9.54
		c0.05-0.64-0.08-1.28-0.38-1.85c-0.31-0.41-0.82-0.63-1.33-0.58c-0.72,0.01-1.37,0.43-1.66,1.09v10.87h-3.93v-14.96H222.49z"/>
	<path class="st1" d="M238.1,277.71v3.68h2.01v2.93h-2.01v7.44c-0.04,0.42,0.05,0.84,0.24,1.22c0.24,0.25,0.59,0.38,0.93,0.33
		c0.31,0.01,0.62-0.03,0.93-0.1l-0.03,3.04c-0.69,0.25-1.42,0.38-2.16,0.37c-2.53,0-3.8-1.45-3.83-4.35v-7.96h-1.73v-2.93h1.73
		v-3.68H238.1z"/>
	<path class="st1" d="M242.96,277.51c-0.02-0.56,0.19-1.1,0.58-1.49c0.89-0.78,2.21-0.78,3.1,0c0.39,0.4,0.6,0.94,0.58,1.49
		c0.02,1.18-0.91,2.15-2.09,2.17s-2.15-0.91-2.17-2.09V277.51z M247.07,296.34h-3.93v-14.96h3.93V296.34z"/>
	<path class="st1" d="M255.35,277.71v3.68h2.01v2.93h-2.01v7.44c-0.04,0.42,0.05,0.84,0.24,1.22c0.24,0.25,0.59,0.38,0.93,0.33
		c0.31,0.01,0.62-0.03,0.93-0.1l-0.03,3.04c-0.69,0.25-1.42,0.38-2.16,0.37c-2.53,0-3.8-1.45-3.83-4.35v-7.96h-1.73v-2.93h1.73
		v-3.68H255.35z"/>
	<path class="st1" d="M265,289.83l1.99-8.45h4.18l-4.92,17.2c-0.74,2.54-2.13,3.8-4.16,3.8c-0.54-0.01-1.08-0.1-1.6-0.26v-3.06
		l0.46,0.01c0.48,0.03,0.97-0.09,1.38-0.35c0.36-0.32,0.61-0.75,0.7-1.22l0.3-1.01L259,281.38h4.2L265,289.83z"/>
	<path class="st1" d="M288.92,291.06c0.05-0.68-0.18-1.35-0.63-1.86c-0.68-0.57-1.45-1.01-2.29-1.31c-1.65-0.53-3.14-1.45-4.36-2.69
		c-0.88-1.01-1.35-2.31-1.33-3.64c-0.06-1.57,0.61-3.07,1.8-4.08c2.27-1.74,5.33-2.03,7.89-0.76c0.95,0.5,1.72,1.27,2.23,2.2
		c0.53,0.99,0.8,2.11,0.78,3.24h-4.05c0.05-0.76-0.16-1.52-0.6-2.15c-0.43-0.51-1.07-0.78-1.74-0.74c-0.62-0.04-1.22,0.19-1.66,0.63
		c-0.41,0.46-0.63,1.07-0.59,1.69c0.01,0.57,0.25,1.11,0.66,1.5c0.69,0.6,1.49,1.07,2.35,1.39c1.62,0.5,3.1,1.39,4.28,2.61
		c0.91,1.1,1.39,2.51,1.33,3.94c0.08,1.55-0.53,3.06-1.67,4.11c-1.28,1.04-2.9,1.57-4.55,1.48c-1.23,0.02-2.45-0.26-3.55-0.8
		c-1.04-0.51-1.91-1.3-2.51-2.3c-0.62-1.07-0.94-2.29-0.91-3.53h4.08c-0.08,0.9,0.16,1.79,0.68,2.53c0.58,0.58,1.39,0.87,2.21,0.79
		C288.21,293.32,288.92,292.57,288.92,291.06z"/>
	<path class="st1" d="M301.7,296.62c-1.75,0.1-3.46-0.55-4.7-1.8c-1.21-1.43-1.81-3.28-1.69-5.14v-1.19
		c-0.12-1.94,0.42-3.87,1.55-5.46c1.09-1.31,2.74-2.02,4.44-1.92c1.62-0.11,3.2,0.56,4.25,1.8c1.06,1.57,1.57,3.45,1.45,5.34v1.92
		h-7.78c-0.02,0.87,0.23,1.72,0.73,2.44c0.52,0.55,1.25,0.83,2,0.77c1.23,0.03,2.42-0.46,3.28-1.34l1.54,2.36
		c-0.54,0.71-1.26,1.27-2.09,1.61C303.73,296.42,302.72,296.63,301.7,296.62z M299.24,287.44h3.91v-0.36
		c0.03-0.7-0.13-1.4-0.44-2.03c-0.31-0.48-0.87-0.75-1.44-0.69c-0.59-0.05-1.16,0.24-1.49,0.73
		C299.41,285.82,299.23,286.62,299.24,287.44L299.24,287.44z"/>
	<path class="st1" d="M315.04,293.37c1.13,0,1.71-0.74,1.73-2.21h3.68c0.05,1.47-0.5,2.89-1.51,3.95c-1.01,1.01-2.39,1.56-3.82,1.51
		c-1.67,0.11-3.29-0.55-4.41-1.8c-1.12-1.53-1.67-3.4-1.55-5.3v-1.19c-0.13-1.91,0.4-3.81,1.5-5.38c1.1-1.28,2.75-1.97,4.43-1.85
		c1.46-0.08,2.88,0.48,3.9,1.53c1.02,1.21,1.54,2.76,1.45,4.33h-3.68c0.03-0.67-0.11-1.34-0.41-1.94c-0.28-0.46-0.79-0.72-1.33-0.68
		c-0.59-0.05-1.15,0.23-1.47,0.73c-0.37,0.89-0.53,1.85-0.47,2.81v1.52c-0.03,0.85,0.03,1.71,0.18,2.55
		c0.08,0.41,0.29,0.78,0.6,1.07C314.2,293.28,314.62,293.4,315.04,293.37z"/>
	<path class="st1" d="M330.72,294.98c-0.74,1.06-1.97,1.68-3.26,1.65c-1.21,0.07-2.38-0.46-3.12-1.42
		c-0.79-1.23-1.16-2.67-1.07-4.13v-9.69h3.91v9.79c0.02,1.46,0.5,2.19,1.45,2.18c0.82,0.04,1.59-0.42,1.94-1.16v-10.81h3.94v14.96
		h-3.68L330.72,294.98z"/>
	<path class="st1" d="M345.39,285.16l-1.3-0.11c-0.96-0.07-1.85,0.51-2.17,1.41v9.89H338v-14.96h3.69l0.11,1.62
		c0.38-1.1,1.4-1.85,2.56-1.89c0.37-0.01,0.73,0.05,1.08,0.18L345.39,285.16z"/>
	<path class="st1" d="M348.11,277.51c-0.02-0.56,0.19-1.1,0.58-1.49c0.89-0.78,2.21-0.78,3.1,0c0.39,0.4,0.6,0.94,0.58,1.49
		c0.02,1.18-0.91,2.15-2.09,2.17s-2.15-0.91-2.17-2.09V277.51z M352.21,296.34h-3.93v-14.96h3.93V296.34z"/>
	<path class="st1" d="M360.36,277.71v3.68h2.01v2.93h-2.01v7.44c-0.04,0.42,0.05,0.84,0.24,1.22c0.24,0.25,0.59,0.38,0.93,0.33
		c0.31,0.01,0.62-0.03,0.93-0.1l-0.03,3.04c-0.69,0.25-1.42,0.38-2.16,0.37c-2.53,0-3.8-1.45-3.83-4.35v-7.96h-1.73v-2.93h1.73
		v-3.68H360.36z"/>
	<path class="st1" d="M370.15,289.83l1.99-8.45h4.17l-4.92,17.2c-0.74,2.54-2.13,3.8-4.16,3.8c-0.54-0.01-1.08-0.1-1.6-0.26v-3.06
		l0.46,0.01c0.48,0.03,0.97-0.09,1.38-0.35c0.36-0.32,0.6-0.75,0.7-1.22l0.3-1.01l-4.31-15.11h4.2L370.15,289.83z"/>
	<path class="st1" d="M399.21,289.64c0.04,1.92-0.65,3.79-1.94,5.21c-1.37,1.25-3.18,1.89-5.03,1.77c-2,0.12-3.94-0.71-5.23-2.25
		c-1.32-1.86-1.97-4.13-1.82-6.41v-3.39c-0.15-2.29,0.52-4.55,1.88-6.4c2.76-2.83,7.25-3.01,10.22-0.41
		c1.24,1.48,1.92,3.35,1.94,5.28h-4.08c0.06-1.02-0.16-2.04-0.66-2.94c-0.56-0.61-1.38-0.91-2.21-0.81
		c-0.92-0.08-1.81,0.36-2.31,1.14c-0.54,1.17-0.79,2.46-0.72,3.75v3.8c-0.11,1.41,0.12,2.82,0.67,4.12c0.5,0.77,1.39,1.21,2.3,1.12
		c0.82,0.1,1.64-0.19,2.21-0.78c0.5-0.86,0.74-1.84,0.69-2.83L399.21,289.64z"/>
	<path class="st1" d="M401.49,288.38c-0.11-1.91,0.46-3.8,1.61-5.34c2.29-2.46,6.14-2.59,8.6-0.3l0.3,0.3
		c1.15,1.54,1.72,3.44,1.61,5.36v0.95c0.11,1.91-0.45,3.8-1.59,5.34c-2.33,2.46-6.21,2.57-8.67,0.25l-0.25-0.25
		c-1.15-1.54-1.71-3.44-1.6-5.36V288.38z M405.41,289.36c0,2.67,0.71,4.01,2.14,4.01c1.32,0,2.03-1.12,2.13-3.35l0.01-1.65
		c0.07-1.04-0.13-2.09-0.57-3.03c-0.3-0.61-0.92-1-1.6-0.99c-0.67,0-1.27,0.39-1.55,0.99c-0.43,0.95-0.62,1.99-0.56,3.03V289.36z"/>
	<path class="st1" d="M420,281.38l0.11,1.38c0.82-1.08,2.11-1.7,3.47-1.66c1.38-0.07,2.65,0.74,3.17,2.02
		c0.76-1.29,2.17-2.07,3.66-2.02c2.62,0,3.96,1.81,4.02,5.43v9.8h-3.91v-9.55c0.05-0.64-0.08-1.28-0.36-1.85
		c-0.28-0.39-0.74-0.6-1.22-0.55c-0.73,0-1.27,0.45-1.63,1.34l0.03,0.47v10.15h-3.91v-9.53c0.05-0.64-0.07-1.28-0.35-1.86
		c-0.27-0.4-0.75-0.63-1.23-0.58c-0.7,0.02-1.33,0.45-1.6,1.09v10.87h-3.91v-14.96H420z"/>
	<path class="st1" d="M449.69,289.33c0.11,1.88-0.31,3.75-1.21,5.41c-0.77,1.24-2.15,1.96-3.6,1.88c-1.16,0.03-2.26-0.53-2.93-1.48
		v6.95h-3.91v-20.71h3.62l0.14,1.37c0.66-1.05,1.82-1.67,3.06-1.65c1.42-0.09,2.79,0.57,3.6,1.74c0.92,1.62,1.35,3.48,1.24,5.34
		L449.69,289.33z M445.79,288.35c0.07-1.05-0.09-2.09-0.48-3.07c-0.31-0.59-0.94-0.95-1.61-0.9c-0.73-0.04-1.42,0.36-1.76,1.01v7.01
		c0.35,0.65,1.05,1.03,1.78,0.97c0.69,0.05,1.34-0.34,1.61-0.98c0.35-0.98,0.5-2.02,0.45-3.06L445.79,288.35z"/>
	<path class="st1" d="M459.86,296.34c-0.15-0.37-0.26-0.76-0.33-1.16c-0.65,0.93-1.72,1.47-2.85,1.44c-1.17,0.04-2.3-0.42-3.12-1.24
		c-0.84-0.86-1.28-2.02-1.24-3.22c-0.08-1.38,0.47-2.72,1.5-3.64c1.24-0.94,2.77-1.4,4.32-1.31h1.19V286c0.05-0.5-0.08-1-0.34-1.42
		c-0.25-0.29-0.63-0.44-1.01-0.42c-0.98,0-1.47,0.57-1.47,1.72h-3.91c-0.03-1.32,0.54-2.58,1.55-3.42c1.1-0.92,2.5-1.4,3.93-1.35
		c1.39-0.09,2.76,0.37,3.81,1.28c0.95,0.97,1.44,2.3,1.35,3.66v7.04c-0.03,1.04,0.16,2.07,0.55,3.03v0.24L459.86,296.34z
		 M457.56,293.55c0.39,0.01,0.77-0.08,1.11-0.26c0.27-0.15,0.51-0.36,0.68-0.62v-3.11h-0.94c-0.59-0.03-1.17,0.2-1.57,0.64
		c-0.4,0.47-0.6,1.08-0.57,1.7C456.25,293,456.69,293.55,457.56,293.55z"/>
	<path class="st1" d="M470.38,281.38l0.11,1.48c0.79-1.12,2.09-1.78,3.47-1.76c2.57,0,3.89,1.8,3.97,5.41v9.83H474v-9.54
		c0.05-0.64-0.08-1.28-0.38-1.85c-0.31-0.41-0.82-0.63-1.33-0.58c-0.72,0.01-1.37,0.43-1.66,1.09v10.87h-3.93v-14.96H470.38z"/>
	<path class="st1" d="M486.24,289.83l1.99-8.45h4.17l-4.92,17.2c-0.74,2.54-2.13,3.8-4.16,3.8c-0.54-0.01-1.08-0.1-1.6-0.26v-3.06
		l0.46,0.01c0.48,0.03,0.97-0.09,1.38-0.35c0.36-0.32,0.6-0.75,0.7-1.22l0.3-1.01l-4.31-15.11h4.2L486.24,289.83z"/>
	<path class="st1" d="M507,220.7c0,0.6-0.42,1.02-1.2,1.02h-1.55v-2.06h1.51C506.53,219.67,507,220.01,507,220.7 M508.56,220.61
		c0-1.45-1.07-2.31-2.75-2.31h-3.11v7h1.55v-2.25h1.22l1.49,2.25h1.8l-1.71-2.51C507.99,222.49,508.61,221.6,508.56,220.61
		 M511.24,221.98c-0.01,3.21-2.62,5.81-5.84,5.8s-5.81-2.62-5.8-5.84c0.01-3.21,2.62-5.81,5.84-5.8h0c3.2,0,5.79,2.59,5.8,5.79
		L511.24,221.98 M512,221.98c-0.01-3.63-2.96-6.57-6.6-6.56c-3.63,0.01-6.57,2.96-6.56,6.6c0.01,3.62,2.94,6.55,6.56,6.56
		c3.61,0.03,6.56-2.86,6.6-6.47V221.98"/>
	<path class="st1" d="M433.57,230.44c0,3.68-2.68,6.17-7.36,6.17h-9.73v-12.53h9.54c4.68,0,7.54,2.12,7.54,6.24L433.57,230.44z
		 M444.61,259.07l-10.66-15.59c5.81-1.89,9.64-7.43,9.35-13.53v-0.12c0-8.98-6.17-14.41-16.46-14.41h-19.96v43.65h9.6V245.1h7.54
		l9.36,13.97L444.61,259.07z M382.44,240.79h-11.6l5.8-14.16L382.44,240.79z M399.9,259.07L381.2,215.1h-8.86l-18.71,43.96h9.79
		l3.99-9.79h18.46l3.99,9.79H399.9z M315.79,237.68v-17.71h13.47c7.05,0,11.16,3.24,11.16,8.61v0.13c0,5.61-4.68,8.98-11.22,8.98
		L315.79,237.68z M310.86,259.07h4.93V242.1h12.47l12.66,16.96h6.05l-13.41-17.83c6.86-1.25,11.85-5.49,11.85-12.72v-0.12
		c0.07-3.2-1.15-6.3-3.37-8.61c-3.4-3.04-7.86-4.61-12.41-4.37h-18.77L310.86,259.07z M269.42,259.07h31.87v-4.49h-26.94V239.3
		h23.82v-4.49h-23.82V219.9h26.63v-4.49h-31.56L269.42,259.07z M228.41,254.64v-15.4h13.78c7.61,0,11.6,2.74,11.6,7.48v0.12
		c0,4.86-4.12,7.8-10.73,7.8L228.41,254.64z M228.41,234.87v-15.03h13.28c6.24,0,9.67,2.81,9.67,7.11v0.13
		c0,5.11-4.12,7.79-10.04,7.79H228.41z M223.54,259.07h19.39c9.54,0,15.84-4.43,15.84-11.91v-0.13c0-5.99-4.18-8.98-9.35-10.54
		c4.23-1.54,7.01-5.6,6.92-10.1v-0.12c0.04-2.61-0.97-5.13-2.81-6.99c-3.16-2.72-7.25-4.11-11.41-3.87h-18.58L223.54,259.07z
		 M192.15,259.07h4.99v-17.34l18.15-26.32h-5.74l-14.84,21.83l-14.72-21.83H174l18.15,26.38L192.15,259.07z M152.02,259.82
		c6.66,0.13,13.05-2.68,17.46-7.67l-3.24-3.18c-4.18,3.99-8.11,6.3-14.09,6.3c-9.6,0-16.9-7.92-16.9-18.02v-0.12
		c0-10.04,7.23-17.9,16.9-17.9c5.2,0.03,10.16,2.2,13.72,5.99l3.37-3.62c-4.45-4.6-10.63-7.12-17.02-6.92
		c-12.85,0-22.08,10.23-22.08,22.58v0.13C130.13,249.9,139.42,259.82,152.02,259.82"/>
	<polygon class="st1" points="492.64,259.07 474.05,233.93 491.83,215.41 480.23,215.41 462.52,234.5 462.52,215.41 452.91,215.41 
		452.91,259.07 462.52,259.07 462.52,245.72 467.57,240.48 481.1,259.07 	"/>
</g>
</svg>
